<mxfile host="app.diagrams.net" modified="2022-02-25T14:44:04.346Z" agent="5.0 (Macintosh; Intel Mac OS X 10_15_7) AppleWebKit/537.36 (KHTML, like Gecko) Chrome/98.0.4758.102 Safari/537.36" etag="X-WFTFeqc5DtMRhUPfhx" version="16.6.4" type="github">
  <diagram id="C5RBs43oDa-KdzZeNtuy" name="Page-1">
    <mxGraphModel dx="1400" dy="660" grid="1" gridSize="10" guides="1" tooltips="1" connect="1" arrows="1" fold="1" page="1" pageScale="1" pageWidth="827" pageHeight="1169" math="0" shadow="0">
      <root>
        <mxCell id="WIyWlLk6GJQsqaUBKTNV-0" />
        <mxCell id="WIyWlLk6GJQsqaUBKTNV-1" parent="WIyWlLk6GJQsqaUBKTNV-0" />
        <mxCell id="10UJsyIhFDWeAJKAxH0l-24" value="" style="edgeStyle=orthogonalEdgeStyle;rounded=0;orthogonalLoop=1;jettySize=auto;html=1;entryX=0.5;entryY=0;entryDx=0;entryDy=0;" parent="WIyWlLk6GJQsqaUBKTNV-1" source="WIyWlLk6GJQsqaUBKTNV-3" target="WIyWlLk6GJQsqaUBKTNV-6" edge="1">
          <mxGeometry relative="1" as="geometry">
            <Array as="points">
              <mxPoint x="365" y="150" />
              <mxPoint x="160" y="150" />
              <mxPoint x="160" y="185" />
            </Array>
          </mxGeometry>
        </mxCell>
        <mxCell id="WIyWlLk6GJQsqaUBKTNV-3" value="User Downloads App from App Store" style="rounded=1;whiteSpace=wrap;html=1;fontSize=12;glass=0;strokeWidth=1;shadow=0;" parent="WIyWlLk6GJQsqaUBKTNV-1" vertex="1">
          <mxGeometry x="180" y="95" width="290" height="40" as="geometry" />
        </mxCell>
        <mxCell id="10UJsyIhFDWeAJKAxH0l-13" value="" style="edgeStyle=orthogonalEdgeStyle;rounded=0;orthogonalLoop=1;jettySize=auto;html=1;" parent="WIyWlLk6GJQsqaUBKTNV-1" source="WIyWlLk6GJQsqaUBKTNV-6" target="10UJsyIhFDWeAJKAxH0l-1" edge="1">
          <mxGeometry relative="1" as="geometry" />
        </mxCell>
        <mxCell id="10UJsyIhFDWeAJKAxH0l-25" value="Yes" style="edgeLabel;html=1;align=center;verticalAlign=middle;resizable=0;points=[];" parent="10UJsyIhFDWeAJKAxH0l-13" vertex="1" connectable="0">
          <mxGeometry x="-0.425" relative="1" as="geometry">
            <mxPoint as="offset" />
          </mxGeometry>
        </mxCell>
        <mxCell id="10UJsyIhFDWeAJKAxH0l-23" value="" style="edgeStyle=orthogonalEdgeStyle;rounded=0;orthogonalLoop=1;jettySize=auto;html=1;" parent="WIyWlLk6GJQsqaUBKTNV-1" source="WIyWlLk6GJQsqaUBKTNV-6" target="WIyWlLk6GJQsqaUBKTNV-7" edge="1">
          <mxGeometry relative="1" as="geometry" />
        </mxCell>
        <mxCell id="10UJsyIhFDWeAJKAxH0l-26" value="No" style="edgeLabel;html=1;align=center;verticalAlign=middle;resizable=0;points=[];" parent="10UJsyIhFDWeAJKAxH0l-23" vertex="1" connectable="0">
          <mxGeometry x="-0.2" y="3" relative="1" as="geometry">
            <mxPoint y="1" as="offset" />
          </mxGeometry>
        </mxCell>
        <mxCell id="WIyWlLk6GJQsqaUBKTNV-6" value="Is user&lt;br&gt;Referred ?" style="rhombus;whiteSpace=wrap;html=1;shadow=0;fontFamily=Helvetica;fontSize=12;align=center;strokeWidth=1;spacing=6;spacingTop=-4;" parent="WIyWlLk6GJQsqaUBKTNV-1" vertex="1">
          <mxGeometry x="40" y="200" width="100" height="80" as="geometry" />
        </mxCell>
        <mxCell id="10UJsyIhFDWeAJKAxH0l-31" value="" style="edgeStyle=orthogonalEdgeStyle;rounded=0;orthogonalLoop=1;jettySize=auto;html=1;" parent="WIyWlLk6GJQsqaUBKTNV-1" source="WIyWlLk6GJQsqaUBKTNV-7" target="10UJsyIhFDWeAJKAxH0l-28" edge="1">
          <mxGeometry relative="1" as="geometry" />
        </mxCell>
        <mxCell id="WIyWlLk6GJQsqaUBKTNV-7" value="Introduction page with &quot;Skip&quot; Option" style="rounded=1;whiteSpace=wrap;html=1;fontSize=12;glass=0;strokeWidth=1;shadow=0;" parent="WIyWlLk6GJQsqaUBKTNV-1" vertex="1">
          <mxGeometry x="207.5" y="190" width="170" height="40" as="geometry" />
        </mxCell>
        <mxCell id="10UJsyIhFDWeAJKAxH0l-21" value="" style="edgeStyle=orthogonalEdgeStyle;rounded=0;orthogonalLoop=1;jettySize=auto;html=1;" parent="WIyWlLk6GJQsqaUBKTNV-1" source="10UJsyIhFDWeAJKAxH0l-0" target="WIyWlLk6GJQsqaUBKTNV-3" edge="1">
          <mxGeometry relative="1" as="geometry" />
        </mxCell>
        <mxCell id="10UJsyIhFDWeAJKAxH0l-0" value="Start" style="ellipse;whiteSpace=wrap;html=1;" parent="WIyWlLk6GJQsqaUBKTNV-1" vertex="1">
          <mxGeometry x="40" y="85" width="80" height="60" as="geometry" />
        </mxCell>
        <mxCell id="10UJsyIhFDWeAJKAxH0l-14" value="" style="edgeStyle=orthogonalEdgeStyle;rounded=0;orthogonalLoop=1;jettySize=auto;html=1;startArrow=none;" parent="WIyWlLk6GJQsqaUBKTNV-1" source="10UJsyIhFDWeAJKAxH0l-2" target="10UJsyIhFDWeAJKAxH0l-3" edge="1">
          <mxGeometry relative="1" as="geometry" />
        </mxCell>
        <mxCell id="10UJsyIhFDWeAJKAxH0l-1" value="Show OTP verification screen with referral code&amp;nbsp;" style="rounded=1;whiteSpace=wrap;html=1;" parent="WIyWlLk6GJQsqaUBKTNV-1" vertex="1">
          <mxGeometry x="30" y="340" width="140" height="40" as="geometry" />
        </mxCell>
        <mxCell id="10UJsyIhFDWeAJKAxH0l-12" value="" style="edgeStyle=orthogonalEdgeStyle;rounded=0;orthogonalLoop=1;jettySize=auto;html=1;" parent="WIyWlLk6GJQsqaUBKTNV-1" source="10UJsyIhFDWeAJKAxH0l-3" target="10UJsyIhFDWeAJKAxH0l-5" edge="1">
          <mxGeometry relative="1" as="geometry" />
        </mxCell>
        <mxCell id="10UJsyIhFDWeAJKAxH0l-3" value="Redirects to enter code Screen" style="rounded=1;whiteSpace=wrap;html=1;" parent="WIyWlLk6GJQsqaUBKTNV-1" vertex="1">
          <mxGeometry x="20" y="510" width="140" height="40" as="geometry" />
        </mxCell>
        <mxCell id="10UJsyIhFDWeAJKAxH0l-15" value="" style="edgeStyle=orthogonalEdgeStyle;rounded=0;orthogonalLoop=1;jettySize=auto;html=1;" parent="WIyWlLk6GJQsqaUBKTNV-1" source="10UJsyIhFDWeAJKAxH0l-5" target="10UJsyIhFDWeAJKAxH0l-6" edge="1">
          <mxGeometry relative="1" as="geometry" />
        </mxCell>
        <mxCell id="10UJsyIhFDWeAJKAxH0l-35" value="Yes" style="edgeLabel;html=1;align=center;verticalAlign=middle;resizable=0;points=[];" parent="10UJsyIhFDWeAJKAxH0l-15" vertex="1" connectable="0">
          <mxGeometry x="-0.1022" y="4" relative="1" as="geometry">
            <mxPoint as="offset" />
          </mxGeometry>
        </mxCell>
        <mxCell id="nSUzCbqfbbwSevExE0pk-0" style="edgeStyle=orthogonalEdgeStyle;rounded=0;orthogonalLoop=1;jettySize=auto;html=1;entryX=0;entryY=0.75;entryDx=0;entryDy=0;" parent="WIyWlLk6GJQsqaUBKTNV-1" source="10UJsyIhFDWeAJKAxH0l-5" target="10UJsyIhFDWeAJKAxH0l-27" edge="1">
          <mxGeometry relative="1" as="geometry">
            <Array as="points">
              <mxPoint x="200" y="640" />
              <mxPoint x="200" y="300" />
            </Array>
          </mxGeometry>
        </mxCell>
        <mxCell id="nSUzCbqfbbwSevExE0pk-2" value="No" style="edgeLabel;html=1;align=center;verticalAlign=middle;resizable=0;points=[];" parent="nSUzCbqfbbwSevExE0pk-0" vertex="1" connectable="0">
          <mxGeometry x="-0.9116" relative="1" as="geometry">
            <mxPoint as="offset" />
          </mxGeometry>
        </mxCell>
        <mxCell id="10UJsyIhFDWeAJKAxH0l-5" value="Is OTP&lt;br&gt;&amp;nbsp;received ?" style="rhombus;whiteSpace=wrap;html=1;shadow=0;fontFamily=Helvetica;fontSize=12;align=center;strokeWidth=1;spacing=6;spacingTop=-4;" parent="WIyWlLk6GJQsqaUBKTNV-1" vertex="1">
          <mxGeometry x="40" y="600" width="100" height="80" as="geometry" />
        </mxCell>
        <mxCell id="10UJsyIhFDWeAJKAxH0l-16" value="" style="edgeStyle=orthogonalEdgeStyle;rounded=0;orthogonalLoop=1;jettySize=auto;html=1;" parent="WIyWlLk6GJQsqaUBKTNV-1" source="10UJsyIhFDWeAJKAxH0l-6" target="10UJsyIhFDWeAJKAxH0l-7" edge="1">
          <mxGeometry relative="1" as="geometry" />
        </mxCell>
        <mxCell id="10UJsyIhFDWeAJKAxH0l-6" value="Enters OTP and submits" style="rounded=1;whiteSpace=wrap;html=1;" parent="WIyWlLk6GJQsqaUBKTNV-1" vertex="1">
          <mxGeometry x="20" y="730" width="140" height="40" as="geometry" />
        </mxCell>
        <mxCell id="10UJsyIhFDWeAJKAxH0l-17" style="edgeStyle=orthogonalEdgeStyle;rounded=0;orthogonalLoop=1;jettySize=auto;html=1;entryX=0;entryY=0.5;entryDx=0;entryDy=0;exitX=0.5;exitY=1;exitDx=0;exitDy=0;" parent="WIyWlLk6GJQsqaUBKTNV-1" source="10UJsyIhFDWeAJKAxH0l-7" target="10UJsyIhFDWeAJKAxH0l-8" edge="1">
          <mxGeometry relative="1" as="geometry" />
        </mxCell>
        <mxCell id="10UJsyIhFDWeAJKAxH0l-36" value="Yes" style="edgeLabel;html=1;align=center;verticalAlign=middle;resizable=0;points=[];" parent="10UJsyIhFDWeAJKAxH0l-17" vertex="1" connectable="0">
          <mxGeometry x="-0.1238" y="-1" relative="1" as="geometry">
            <mxPoint as="offset" />
          </mxGeometry>
        </mxCell>
        <mxCell id="10UJsyIhFDWeAJKAxH0l-7" value="Is OTP verification success ?" style="rhombus;whiteSpace=wrap;html=1;shadow=0;fontFamily=Helvetica;fontSize=12;align=center;strokeWidth=1;spacing=6;spacingTop=-4;" parent="WIyWlLk6GJQsqaUBKTNV-1" vertex="1">
          <mxGeometry x="40" y="850" width="100" height="80" as="geometry" />
        </mxCell>
        <mxCell id="10UJsyIhFDWeAJKAxH0l-18" value="" style="edgeStyle=orthogonalEdgeStyle;rounded=0;orthogonalLoop=1;jettySize=auto;html=1;" parent="WIyWlLk6GJQsqaUBKTNV-1" source="10UJsyIhFDWeAJKAxH0l-8" target="10UJsyIhFDWeAJKAxH0l-9" edge="1">
          <mxGeometry relative="1" as="geometry" />
        </mxCell>
        <mxCell id="10UJsyIhFDWeAJKAxH0l-8" value="Redirects to Profile registration screen" style="rounded=1;whiteSpace=wrap;html=1;" parent="WIyWlLk6GJQsqaUBKTNV-1" vertex="1">
          <mxGeometry x="210" y="730" width="140" height="40" as="geometry" />
        </mxCell>
        <mxCell id="10UJsyIhFDWeAJKAxH0l-19" value="" style="edgeStyle=orthogonalEdgeStyle;rounded=0;orthogonalLoop=1;jettySize=auto;html=1;" parent="WIyWlLk6GJQsqaUBKTNV-1" source="10UJsyIhFDWeAJKAxH0l-9" target="10UJsyIhFDWeAJKAxH0l-10" edge="1">
          <mxGeometry relative="1" as="geometry" />
        </mxCell>
        <mxCell id="10UJsyIhFDWeAJKAxH0l-9" value="Fill in profile page and submits" style="rounded=1;whiteSpace=wrap;html=1;" parent="WIyWlLk6GJQsqaUBKTNV-1" vertex="1">
          <mxGeometry x="220" y="875" width="140" height="40" as="geometry" />
        </mxCell>
        <mxCell id="10UJsyIhFDWeAJKAxH0l-20" value="" style="edgeStyle=orthogonalEdgeStyle;rounded=0;orthogonalLoop=1;jettySize=auto;html=1;" parent="WIyWlLk6GJQsqaUBKTNV-1" source="10UJsyIhFDWeAJKAxH0l-10" target="10UJsyIhFDWeAJKAxH0l-11" edge="1">
          <mxGeometry relative="1" as="geometry">
            <Array as="points">
              <mxPoint x="290" y="1135" />
            </Array>
          </mxGeometry>
        </mxCell>
        <mxCell id="Ivv-sb7xZnsa33SMAHXj-0" value="Yes" style="edgeLabel;html=1;align=center;verticalAlign=middle;resizable=0;points=[];" vertex="1" connectable="0" parent="10UJsyIhFDWeAJKAxH0l-20">
          <mxGeometry x="-0.8844" y="1" relative="1" as="geometry">
            <mxPoint y="1" as="offset" />
          </mxGeometry>
        </mxCell>
        <mxCell id="10UJsyIhFDWeAJKAxH0l-10" value="Is profile &lt;br&gt;submission &lt;br&gt;success ?" style="rhombus;whiteSpace=wrap;html=1;shadow=0;fontFamily=Helvetica;fontSize=12;align=center;strokeWidth=1;spacing=6;spacingTop=-4;" parent="WIyWlLk6GJQsqaUBKTNV-1" vertex="1">
          <mxGeometry x="230" y="975" width="120" height="90" as="geometry" />
        </mxCell>
        <mxCell id="10UJsyIhFDWeAJKAxH0l-33" value="" style="edgeStyle=orthogonalEdgeStyle;rounded=0;orthogonalLoop=1;jettySize=auto;html=1;" parent="WIyWlLk6GJQsqaUBKTNV-1" source="10UJsyIhFDWeAJKAxH0l-11" target="10UJsyIhFDWeAJKAxH0l-22" edge="1">
          <mxGeometry relative="1" as="geometry" />
        </mxCell>
        <mxCell id="10UJsyIhFDWeAJKAxH0l-11" value="Logged In and view Dashboard" style="rounded=1;whiteSpace=wrap;html=1;" parent="WIyWlLk6GJQsqaUBKTNV-1" vertex="1">
          <mxGeometry x="440" y="1065" width="140" height="40" as="geometry" />
        </mxCell>
        <mxCell id="10UJsyIhFDWeAJKAxH0l-22" value="End" style="ellipse;whiteSpace=wrap;html=1;" parent="WIyWlLk6GJQsqaUBKTNV-1" vertex="1">
          <mxGeometry x="470" y="875" width="80" height="60" as="geometry" />
        </mxCell>
        <mxCell id="10UJsyIhFDWeAJKAxH0l-42" style="edgeStyle=orthogonalEdgeStyle;rounded=0;orthogonalLoop=1;jettySize=auto;html=1;entryX=0.5;entryY=0;entryDx=0;entryDy=0;" parent="WIyWlLk6GJQsqaUBKTNV-1" source="10UJsyIhFDWeAJKAxH0l-27" target="10UJsyIhFDWeAJKAxH0l-40" edge="1">
          <mxGeometry relative="1" as="geometry" />
        </mxCell>
        <mxCell id="10UJsyIhFDWeAJKAxH0l-50" style="edgeStyle=orthogonalEdgeStyle;rounded=0;orthogonalLoop=1;jettySize=auto;html=1;exitX=1;exitY=0.5;exitDx=0;exitDy=0;entryX=0;entryY=0.5;entryDx=0;entryDy=0;" parent="WIyWlLk6GJQsqaUBKTNV-1" source="10UJsyIhFDWeAJKAxH0l-27" target="10UJsyIhFDWeAJKAxH0l-49" edge="1">
          <mxGeometry relative="1" as="geometry">
            <Array as="points">
              <mxPoint x="520" y="290" />
              <mxPoint x="520" y="163" />
            </Array>
          </mxGeometry>
        </mxCell>
        <mxCell id="10UJsyIhFDWeAJKAxH0l-27" value="Redirects to Welcome page" style="rounded=1;whiteSpace=wrap;html=1;fontSize=12;glass=0;strokeWidth=1;shadow=0;" parent="WIyWlLk6GJQsqaUBKTNV-1" vertex="1">
          <mxGeometry x="230" y="270" width="170" height="40" as="geometry" />
        </mxCell>
        <mxCell id="10UJsyIhFDWeAJKAxH0l-32" value="" style="edgeStyle=orthogonalEdgeStyle;rounded=0;orthogonalLoop=1;jettySize=auto;html=1;" parent="WIyWlLk6GJQsqaUBKTNV-1" source="10UJsyIhFDWeAJKAxH0l-28" target="10UJsyIhFDWeAJKAxH0l-29" edge="1">
          <mxGeometry relative="1" as="geometry" />
        </mxCell>
        <mxCell id="10UJsyIhFDWeAJKAxH0l-34" value="Yes" style="edgeLabel;html=1;align=center;verticalAlign=middle;resizable=0;points=[];" parent="10UJsyIhFDWeAJKAxH0l-32" vertex="1" connectable="0">
          <mxGeometry x="-0.28" y="4" relative="1" as="geometry">
            <mxPoint as="offset" />
          </mxGeometry>
        </mxCell>
        <mxCell id="10UJsyIhFDWeAJKAxH0l-44" style="edgeStyle=orthogonalEdgeStyle;rounded=0;orthogonalLoop=1;jettySize=auto;html=1;" parent="WIyWlLk6GJQsqaUBKTNV-1" source="10UJsyIhFDWeAJKAxH0l-28" target="10UJsyIhFDWeAJKAxH0l-22" edge="1">
          <mxGeometry relative="1" as="geometry">
            <Array as="points">
              <mxPoint x="410" y="435" />
              <mxPoint x="410" y="905" />
            </Array>
          </mxGeometry>
        </mxCell>
        <mxCell id="10UJsyIhFDWeAJKAxH0l-45" value="No" style="edgeLabel;html=1;align=center;verticalAlign=middle;resizable=0;points=[];" parent="10UJsyIhFDWeAJKAxH0l-44" vertex="1" connectable="0">
          <mxGeometry x="-0.2321" y="2" relative="1" as="geometry">
            <mxPoint x="-32" y="-173" as="offset" />
          </mxGeometry>
        </mxCell>
        <mxCell id="10UJsyIhFDWeAJKAxH0l-28" value="Is OTP&lt;br&gt;&amp;nbsp;verification clicked &lt;br&gt;&quot;Verify OTP&quot; ?" style="rhombus;whiteSpace=wrap;html=1;shadow=0;fontFamily=Helvetica;fontSize=12;align=center;strokeWidth=1;spacing=6;spacingTop=-4;" parent="WIyWlLk6GJQsqaUBKTNV-1" vertex="1">
          <mxGeometry x="225" y="380" width="135" height="110" as="geometry" />
        </mxCell>
        <mxCell id="10UJsyIhFDWeAJKAxH0l-30" style="edgeStyle=orthogonalEdgeStyle;rounded=0;orthogonalLoop=1;jettySize=auto;html=1;entryX=1;entryY=0.5;entryDx=0;entryDy=0;" parent="WIyWlLk6GJQsqaUBKTNV-1" source="10UJsyIhFDWeAJKAxH0l-29" target="10UJsyIhFDWeAJKAxH0l-2" edge="1">
          <mxGeometry relative="1" as="geometry" />
        </mxCell>
        <mxCell id="10UJsyIhFDWeAJKAxH0l-29" value="Show OTP verification screen without referral code&amp;nbsp;" style="rounded=1;whiteSpace=wrap;html=1;" parent="WIyWlLk6GJQsqaUBKTNV-1" vertex="1">
          <mxGeometry x="220" y="570" width="170" height="40" as="geometry" />
        </mxCell>
        <mxCell id="10UJsyIhFDWeAJKAxH0l-41" style="edgeStyle=orthogonalEdgeStyle;rounded=0;orthogonalLoop=1;jettySize=auto;html=1;entryX=1;entryY=0.75;entryDx=0;entryDy=0;exitX=0.5;exitY=1;exitDx=0;exitDy=0;" parent="WIyWlLk6GJQsqaUBKTNV-1" source="10UJsyIhFDWeAJKAxH0l-40" target="10UJsyIhFDWeAJKAxH0l-8" edge="1">
          <mxGeometry relative="1" as="geometry" />
        </mxCell>
        <mxCell id="10UJsyIhFDWeAJKAxH0l-46" value="Yes" style="edgeLabel;html=1;align=center;verticalAlign=middle;resizable=0;points=[];" parent="10UJsyIhFDWeAJKAxH0l-41" vertex="1" connectable="0">
          <mxGeometry x="-0.6964" y="4" relative="1" as="geometry">
            <mxPoint x="-4" y="-23" as="offset" />
          </mxGeometry>
        </mxCell>
        <mxCell id="10UJsyIhFDWeAJKAxH0l-47" style="edgeStyle=orthogonalEdgeStyle;rounded=0;orthogonalLoop=1;jettySize=auto;html=1;entryX=1;entryY=0.5;entryDx=0;entryDy=0;exitX=1;exitY=0.5;exitDx=0;exitDy=0;" parent="WIyWlLk6GJQsqaUBKTNV-1" source="10UJsyIhFDWeAJKAxH0l-40" target="10UJsyIhFDWeAJKAxH0l-22" edge="1">
          <mxGeometry relative="1" as="geometry">
            <mxPoint x="660" y="655" as="targetPoint" />
            <Array as="points">
              <mxPoint x="610" y="585" />
              <mxPoint x="610" y="770" />
              <mxPoint x="600" y="770" />
              <mxPoint x="600" y="905" />
            </Array>
          </mxGeometry>
        </mxCell>
        <mxCell id="10UJsyIhFDWeAJKAxH0l-48" value="No" style="edgeLabel;html=1;align=center;verticalAlign=middle;resizable=0;points=[];" parent="10UJsyIhFDWeAJKAxH0l-47" vertex="1" connectable="0">
          <mxGeometry x="-0.326" y="4" relative="1" as="geometry">
            <mxPoint x="-24" y="-101" as="offset" />
          </mxGeometry>
        </mxCell>
        <mxCell id="10UJsyIhFDWeAJKAxH0l-40" value="Is &quot;Signup &quot; clicked - available on bottom of screen ?" style="rhombus;whiteSpace=wrap;html=1;shadow=0;fontFamily=Helvetica;fontSize=12;align=center;strokeWidth=1;spacing=6;spacingTop=-4;" parent="WIyWlLk6GJQsqaUBKTNV-1" vertex="1">
          <mxGeometry x="420" y="517" width="150" height="135" as="geometry" />
        </mxCell>
        <mxCell id="10UJsyIhFDWeAJKAxH0l-52" value="" style="edgeStyle=orthogonalEdgeStyle;rounded=0;orthogonalLoop=1;jettySize=auto;html=1;" parent="WIyWlLk6GJQsqaUBKTNV-1" source="10UJsyIhFDWeAJKAxH0l-49" target="10UJsyIhFDWeAJKAxH0l-51" edge="1">
          <mxGeometry relative="1" as="geometry" />
        </mxCell>
        <mxCell id="10UJsyIhFDWeAJKAxH0l-49" value="Is Social media login clicked ?" style="rhombus;whiteSpace=wrap;html=1;shadow=0;fontFamily=Helvetica;fontSize=12;align=center;strokeWidth=1;spacing=6;spacingTop=-4;" parent="WIyWlLk6GJQsqaUBKTNV-1" vertex="1">
          <mxGeometry x="580" y="95" width="150" height="135" as="geometry" />
        </mxCell>
        <mxCell id="10UJsyIhFDWeAJKAxH0l-61" value="" style="edgeStyle=orthogonalEdgeStyle;rounded=0;orthogonalLoop=1;jettySize=auto;html=1;" parent="WIyWlLk6GJQsqaUBKTNV-1" source="10UJsyIhFDWeAJKAxH0l-51" target="10UJsyIhFDWeAJKAxH0l-53" edge="1">
          <mxGeometry relative="1" as="geometry" />
        </mxCell>
        <mxCell id="10UJsyIhFDWeAJKAxH0l-51" value="Logs in his/her social media account" style="rounded=1;whiteSpace=wrap;html=1;" parent="WIyWlLk6GJQsqaUBKTNV-1" vertex="1">
          <mxGeometry x="570" y="280" width="170" height="40" as="geometry" />
        </mxCell>
        <mxCell id="10UJsyIhFDWeAJKAxH0l-62" value="" style="edgeStyle=orthogonalEdgeStyle;rounded=0;orthogonalLoop=1;jettySize=auto;html=1;" parent="WIyWlLk6GJQsqaUBKTNV-1" source="10UJsyIhFDWeAJKAxH0l-53" target="10UJsyIhFDWeAJKAxH0l-54" edge="1">
          <mxGeometry relative="1" as="geometry" />
        </mxCell>
        <mxCell id="10UJsyIhFDWeAJKAxH0l-53" value="Redirects to Verification screen(NEW)" style="rounded=1;whiteSpace=wrap;html=1;" parent="WIyWlLk6GJQsqaUBKTNV-1" vertex="1">
          <mxGeometry x="570" y="380" width="170" height="40" as="geometry" />
        </mxCell>
        <mxCell id="10UJsyIhFDWeAJKAxH0l-57" style="edgeStyle=orthogonalEdgeStyle;rounded=0;orthogonalLoop=1;jettySize=auto;html=1;entryX=1;entryY=0.5;entryDx=0;entryDy=0;exitX=0.5;exitY=1;exitDx=0;exitDy=0;" parent="WIyWlLk6GJQsqaUBKTNV-1" source="10UJsyIhFDWeAJKAxH0l-54" target="10UJsyIhFDWeAJKAxH0l-11" edge="1">
          <mxGeometry relative="1" as="geometry">
            <mxPoint x="730" y="895" as="targetPoint" />
          </mxGeometry>
        </mxCell>
        <mxCell id="10UJsyIhFDWeAJKAxH0l-58" value="Yes" style="edgeLabel;html=1;align=center;verticalAlign=middle;resizable=0;points=[];" parent="10UJsyIhFDWeAJKAxH0l-57" vertex="1" connectable="0">
          <mxGeometry x="-0.8655" y="-1" relative="1" as="geometry">
            <mxPoint as="offset" />
          </mxGeometry>
        </mxCell>
        <mxCell id="10UJsyIhFDWeAJKAxH0l-59" style="edgeStyle=orthogonalEdgeStyle;rounded=0;orthogonalLoop=1;jettySize=auto;html=1;entryX=1;entryY=0.5;entryDx=0;entryDy=0;" parent="WIyWlLk6GJQsqaUBKTNV-1" source="10UJsyIhFDWeAJKAxH0l-54" target="10UJsyIhFDWeAJKAxH0l-8" edge="1">
          <mxGeometry relative="1" as="geometry">
            <Array as="points">
              <mxPoint x="800" y="554" />
              <mxPoint x="800" y="790" />
              <mxPoint x="360" y="790" />
            </Array>
          </mxGeometry>
        </mxCell>
        <mxCell id="10UJsyIhFDWeAJKAxH0l-60" value="No" style="edgeLabel;html=1;align=center;verticalAlign=middle;resizable=0;points=[];" parent="10UJsyIhFDWeAJKAxH0l-59" vertex="1" connectable="0">
          <mxGeometry x="-0.7659" y="1" relative="1" as="geometry">
            <mxPoint as="offset" />
          </mxGeometry>
        </mxCell>
        <mxCell id="10UJsyIhFDWeAJKAxH0l-54" value="User&lt;br&gt;found based on email /social &lt;br&gt;media ID?" style="rhombus;whiteSpace=wrap;html=1;shadow=0;fontFamily=Helvetica;fontSize=12;align=center;strokeWidth=1;spacing=6;spacingTop=-4;" parent="WIyWlLk6GJQsqaUBKTNV-1" vertex="1">
          <mxGeometry x="630" y="497.5" width="145" height="112.5" as="geometry" />
        </mxCell>
        <mxCell id="10UJsyIhFDWeAJKAxH0l-63" value="&lt;font style=&quot;font-size: 36px&quot;&gt;Login / Registration Flow&lt;/font&gt;" style="rounded=1;whiteSpace=wrap;html=1;" parent="WIyWlLk6GJQsqaUBKTNV-1" vertex="1">
          <mxGeometry x="50" y="20" width="670" height="50" as="geometry" />
        </mxCell>
        <mxCell id="10UJsyIhFDWeAJKAxH0l-2" value="Enters Mobile number to get OTP&amp;nbsp;" style="rounded=1;whiteSpace=wrap;html=1;" parent="WIyWlLk6GJQsqaUBKTNV-1" vertex="1">
          <mxGeometry x="20" y="415" width="140" height="40" as="geometry" />
        </mxCell>
        <mxCell id="10UJsyIhFDWeAJKAxH0l-64" value="" style="edgeStyle=orthogonalEdgeStyle;rounded=0;orthogonalLoop=1;jettySize=auto;html=1;endArrow=none;" parent="WIyWlLk6GJQsqaUBKTNV-1" source="10UJsyIhFDWeAJKAxH0l-1" target="10UJsyIhFDWeAJKAxH0l-2" edge="1">
          <mxGeometry relative="1" as="geometry">
            <mxPoint x="120" y="385" as="sourcePoint" />
            <mxPoint x="50" y="475" as="targetPoint" />
          </mxGeometry>
        </mxCell>
      </root>
    </mxGraphModel>
  </diagram>
</mxfile>
